<?xml version="1.0" standalone="no"?>
<svg xmlns:xlink="http://www.w3.org/1999/xlink" xmlns="http://www.w3.org/2000/svg" width="285" height="180" viewbox="0 0 180[object Object]15 180" preserveaspectratio="xMinYMin meet"><g><rect width="30" height="30" x="115" y="105" fill="#fff" opacity="1"></rect><rect width="29.5" height="29.5" x="115" y="105" fill="#98cae1" opacity="1"></rect><text class="f0 ta0 c0 s0" x="129.75" y="109.71">110Ag</text><text class="f0 ta0 c0 s0" x="129.75" y="113.93">24.56 s</text><text class="f0 ta0 c0 s0" x="129.75" y="122.36">$\beta$⁻=99.7%</text><text class="f0 ta0 c0 s0" x="129.75" y="126.57">ε=0.3%</text><rect width="30" height="30" x="145" y="105" fill="#fff" opacity="1"></rect><rect width="29.5" height="29.5" x="145" y="105" fill="#4a7bb7" opacity="1"></rect><text class="f0 ta0 c0 s0" x="159.75" y="109.71">111Ag</text><text class="f0 ta0 c0 s0" x="159.75" y="113.93">7.421 d</text><text class="f0 ta0 c0 s0" x="159.75" y="122.36">$\beta$⁻=100%</text><rect width="30" height="30" x="55" y="105" fill="#fff" opacity="1"></rect><rect width="29.5" height="29.5" x="55" y="105" fill="#6ea6cd" opacity="1"></rect><text class="f0 ta0 c0 s0" x="69.75" y="109.71">108Ag</text><text class="f0 ta0 c0 s0" x="69.75" y="113.93">2.39 min</text><text class="f0 ta0 c0 s0" x="69.75" y="122.36">$\beta$⁻=97.15%</text><text class="f0 ta0 c0 s0" x="69.75" y="126.57">ε+$\beta$+=2.85%</text><rect width="30" height="30" x="85" y="105" fill="#fff" opacity="1"></rect><rect width="29.5" height="29.5" x="85" y="105" fill="#000" opacity="1"></rect><text class="f0 ta0 c1 s0" x="99.75" y="109.71">109Ag</text><text class="f0 ta0 c1 s0" x="99.75" y="113.93">STABLE</text><text class="f0 ta0 c1 s0" x="99.75" y="118.14">48.161%</text><rect width="30" height="30" x="235" y="105" fill="#fff" opacity="1"></rect><rect width="29.5" height="29.5" x="235" y="105" fill="#98cae1" opacity="1"></rect><text class="f0 ta0 c0 s0" x="249.75" y="109.71">114Ag</text><text class="f0 ta0 c0 s0" x="249.75" y="113.93">4.59 s</text><text class="f0 ta0 c0 s0" x="249.75" y="122.36">$\beta$⁻=100%</text><rect width="30" height="30" x="175" y="105" fill="#fff" opacity="1"></rect><rect width="29.5" height="29.5" x="175" y="105" fill="#6ea6cd" opacity="1"></rect><text class="f0 ta0 c0 s0" x="189.75" y="109.71">112Ag</text><text class="f0 ta0 c0 s0" x="189.75" y="113.93">3.15 h</text><text class="f0 ta0 c0 s0" x="189.75" y="122.36">$\beta$⁻=100%</text><rect width="30" height="30" x="205" y="105" fill="#fff" opacity="1"></rect><rect width="29.5" height="29.5" x="205" y="105" fill="#6ea6cd" opacity="1"></rect><text class="f0 ta0 c0 s0" x="219.75" y="109.71">113Ag</text><text class="f0 ta0 c0 s0" x="219.75" y="113.93">5.37 h</text><text class="f0 ta0 c0 s0" x="219.75" y="122.36">$\beta$⁻=100%</text><rect width="30" height="30" x="145" y="75" fill="#fff" opacity="1"></rect><rect width="29.5" height="29.5" x="145" y="75" fill="#000" opacity="1"></rect><text class="f0 ta0 c1 s0" x="159.75" y="79.71">112Cd</text><text class="f0 ta0 c1 s0" x="159.75" y="83.93">STABLE</text><text class="f0 ta0 c1 s0" x="159.75" y="88.14">24.109%</text><rect width="30" height="30" x="175" y="75" fill="#fff" opacity="1"></rect><rect width="29.5" height="29.5" x="175" y="75" fill="#000000" opacity="1"></rect><text class="f0 ta0 c1 s0" x="189.75" y="79.71">113Cd</text><text class="f0 ta0 c1 s0" x="189.75" y="83.93">8.04e+15 y</text><text class="f0 ta0 c1 s0" x="189.75" y="88.14">12.227%</text><text class="f0 ta0 c1 s0" x="189.75" y="92.36">$\beta$⁻=100%</text><rect width="30" height="30" x="85" y="75" fill="#fff" opacity="1"></rect><rect width="29.5" height="29.5" x="85" y="75" fill="#000" opacity="1"></rect><text class="f0 ta0 c1 s0" x="99.75" y="79.71">110Cd</text><text class="f0 ta0 c1 s0" x="99.75" y="83.93">STABLE</text><text class="f0 ta0 c1 s0" x="99.75" y="88.14">12.47%</text><rect width="30" height="30" x="115" y="75" fill="#fff" opacity="1"></rect><rect width="29.5" height="29.5" x="115" y="75" fill="#000" opacity="1"></rect><text class="f0 ta0 c1 s0" x="129.75" y="79.71">111Cd</text><text class="f0 ta0 c1 s0" x="129.75" y="83.93">STABLE</text><text class="f0 ta0 c1 s0" x="129.75" y="88.14">12.795%</text><rect width="30" height="30" x="55" y="75" fill="#fff" opacity="1"></rect><rect width="29.5" height="29.5" x="55" y="75" fill="#4a7bb7" opacity="1"></rect><text class="f0 ta0 c0 s0" x="69.75" y="79.71">109Cd</text><text class="f0 ta0 c0 s0" x="69.75" y="83.93">461.98 d</text><text class="f0 ta0 c0 s0" x="69.75" y="92.36">ε=100%</text><rect width="30" height="30" x="205" y="75" fill="#fff" opacity="1"></rect><rect width="29.5" height="29.5" x="205" y="75" fill="#000" opacity="1"></rect><text class="f0 ta0 c1 s0" x="219.75" y="79.71">114Cd</text><text class="f0 ta0 c1 s0" x="219.75" y="83.93">STABLE</text><text class="f0 ta0 c1 s0" x="219.75" y="88.14">28.754%</text><rect width="30" height="30" x="235" y="75" fill="#fff" opacity="1"></rect><rect width="29.5" height="29.5" x="235" y="75" fill="#4a7bb7" opacity="1"></rect><text class="f0 ta0 c0 s0" x="249.75" y="79.71">115Cd</text><text class="f0 ta0 c0 s0" x="249.75" y="83.93">53.4 h</text><text class="f0 ta0 c0 s0" x="249.75" y="92.36">$\beta$⁻=100%</text><rect width="30" height="30" x="205" y="45" fill="#fff" opacity="1"></rect><rect width="29.5" height="29.5" x="205" y="45" fill="#000000" opacity="1"></rect><text class="f0 ta0 c1 s0" x="219.75" y="49.71">115In</text><text class="f0 ta0 c1 s0" x="219.75" y="53.93">4.41e+14 y</text><text class="f0 ta0 c1 s0" x="219.75" y="58.14">95.719%</text><text class="f0 ta0 c1 s0" x="219.75" y="62.36">$\beta$⁻=100%</text><rect width="30" height="30" x="175" y="45" fill="#fff" opacity="1"></rect><rect width="29.5" height="29.5" x="175" y="45" fill="#98cae1" opacity="1"></rect><text class="f0 ta0 c0 s0" x="189.75" y="49.71">114In</text><text class="f0 ta0 c0 s0" x="189.75" y="53.93">71.9 s</text><text class="f0 ta0 c0 s0" x="189.75" y="62.36">$\beta$⁻=99.5%</text><text class="f0 ta0 c0 s0" x="189.75" y="66.57">ε+$\beta$+=0.5%</text><rect width="30" height="30" x="145" y="45" fill="#fff" opacity="1"></rect><rect width="29.5" height="29.5" x="145" y="45" fill="#000" opacity="1"></rect><text class="f0 ta0 c1 s0" x="159.75" y="49.71">113In</text><text class="f0 ta0 c1 s0" x="159.75" y="53.93">STABLE</text><text class="f0 ta0 c1 s0" x="159.75" y="58.14">4.281%</text><rect width="30" height="30" x="115" y="45" fill="#fff" opacity="1"></rect><rect width="29.5" height="29.5" x="115" y="45" fill="#6ea6cd" opacity="1"></rect><text class="f0 ta0 c0 s0" x="129.75" y="49.71">112In</text><text class="f0 ta0 c0 s0" x="129.75" y="53.93">14.88 min</text><text class="f0 ta0 c0 s0" x="129.75" y="62.36">ε+$\beta$+=62%</text><text class="f0 ta0 c0 s0" x="129.75" y="66.57">$\beta$⁻=38%</text><rect width="30" height="30" x="85" y="45" fill="#fff" opacity="1"></rect><rect width="29.5" height="29.5" x="85" y="45" fill="#4a7bb7" opacity="1"></rect><text class="f0 ta0 c0 s0" x="99.75" y="49.71">111In</text><text class="f0 ta0 c0 s0" x="99.75" y="53.93">2.80 d</text><text class="f0 ta0 c0 s0" x="99.75" y="62.36">ε=100%</text><rect width="30" height="30" x="55" y="45" fill="#fff" opacity="1"></rect><rect width="29.5" height="29.5" x="55" y="45" fill="#6ea6cd" opacity="1"></rect><text class="f0 ta0 c0 s0" x="69.75" y="49.71">110In</text><text class="f0 ta0 c0 s0" x="69.75" y="53.93">4.9 h</text><text class="f0 ta0 c0 s0" x="69.75" y="62.36">ε+$\beta$+=100%</text><rect width="30" height="30" x="235" y="45" fill="#fff" opacity="1"></rect><rect width="29.5" height="29.5" x="235" y="45" fill="#98cae1" opacity="1"></rect><text class="f0 ta0 c0 s0" x="249.75" y="49.71">116In</text><text class="f0 ta0 c0 s0" x="249.75" y="53.93">14.1 s</text><text class="f0 ta0 c0 s0" x="249.75" y="62.36">$\beta$⁻=99.976%</text><text class="f0 ta0 c0 s0" x="249.75" y="66.57">ε=2.38e-2%</text><rect width="29.5" height="29.5" x="85" y="105" stroke="#000" stroke-width="4" fill="none" opacity="1"></rect><rect width="29.5" height="29.5" x="145" y="75" stroke="#000" stroke-width="4" fill="none" opacity="1"></rect><rect width="29.5" height="29.5" x="85" y="75" stroke="#000" stroke-width="4" fill="none" opacity="1"></rect><rect width="29.5" height="29.5" x="115" y="75" stroke="#000" stroke-width="4" fill="none" opacity="1"></rect><rect width="29.5" height="29.5" x="205" y="75" stroke="#000" stroke-width="4" fill="none" opacity="1"></rect><rect width="29.5" height="29.5" x="145" y="45" stroke="#000" stroke-width="4" fill="none" opacity="1"></rect><g class="f0 ta0 db0 a3"><text class="f0 db0 a3" style="text-anchor: initial;" x="130" y="170">Neutron (N) #</text><line x1="30" y1="150" x2="265" y2="150" stroke="#000" stroke-width="1"></line><line x1="70" y1="150" x2="70" y2="160" stroke="#000" stroke-width="1"></line><text x="70" y="160">61</text><line x1="100" y1="150" x2="100" y2="160" stroke="#000" stroke-width="1"></line><text x="100" y="160">62</text><line x1="130" y1="150" x2="130" y2="160" stroke="#000" stroke-width="1"></line><text x="130" y="160">63</text><line x1="160" y1="150" x2="160" y2="160" stroke="#000" stroke-width="1"></line><text x="160" y="160">64</text><line x1="190" y1="150" x2="190" y2="160" stroke="#000" stroke-width="1"></line><text x="190" y="160">65</text><line x1="220" y1="150" x2="220" y2="160" stroke="#000" stroke-width="1"></line><text x="220" y="160">66</text><line x1="250" y1="150" x2="250" y2="160" stroke="#000" stroke-width="1"></line><text x="250" y="160">67</text></g><g class="f0 ta1 db1 a3"><text x="10" y="90" style="dominant-baseline: auto; text-anchor: middle;" transform="rotate(-90, 10, 90)">Proton (Z) #</text><line x1="40" y1="45" x2="40" y2="160" stroke="#000" stroke-width="1"></line><line x1="40" y1="120" x2="30" y2="120" stroke="#000" stroke-width="1"></line><text x="30" y="120">47</text><line x1="40" y1="90" x2="30" y2="90" stroke="#000" stroke-width="1"></line><text x="30" y="90">48</text><line x1="40" y1="60" x2="30" y2="60" stroke="#000" stroke-width="1"></line><text x="30" y="60">49</text></g><svg version="1.1" id="Layer_1" xmlns="http://www.w3.org/2000/svg" xmlns:xlink="http://www.w3.org/1999/xlink" x="270" y="120" viewBox="0 0 144.05 142.32" style="enable-background:new 0 0 144.05 142.32;" xml:space="preserve" width="15" height="15">
<style type="text/css">
	.st0{fill:url(#SVGID_1_);}
	.st1{fill:url(#SVGID_2_);}
</style>
<linearGradient id="SVGID_1_" gradientUnits="userSpaceOnUse" x1="83.6709" y1="513.3085" x2="161.0045" y2="468.6594" gradientTransform="matrix(1 0 0 1 0 -423.3636)">
	<stop offset="0" style="stop-color:#00ADDC"/>
	<stop offset="1" style="stop-color:#008DB1"/>
</linearGradient>
<path class="st0" d="M121.08,142.32c7.07-0.01,12.8-5.74,12.8-12.81V20.93H139c2.76,0.03,5.02-2.19,5.05-4.95c0-0.02,0-0.03,0-0.05  L117.97,1.44c-3.5-1.98-7.8-1.91-11.23,0.18L80.32,15.93c0,2.51,2,5.06,4.56,5.06h5.56v11c0,0.35-0.09,0.69-0.24,1  c2.01,1.38,3.71,3.15,5,5.22l18.71,30.29v73.82H121.08z"/>
<linearGradient id="SVGID_2_" gradientUnits="userSpaceOnUse" x1="3.445" y1="486.5669" x2="115.5867" y2="551.3137" gradientTransform="matrix(1 0 0 1 0 -423.3636)">
	<stop offset="0" style="stop-color:#B2D33B"/>
	<stop offset="1" style="stop-color:#86A333"/>
</linearGradient>
<path class="st1" d="M14.33,142.32c-7.91,0-14.32-6.4-14.33-14.31V69.17l18.51-28.12c1.78-2.88,4.41-5.14,7.52-6.47l25.8-12.26  c2.4-1.14,5.2-1.12,7.58,0.06l23.67,11.77c2.42,1.24,4.46,3.11,5.9,5.42l18.31,29.65v73.1L14.33,142.32L14.33,142.32z"/>
<style type="text/css">
                        .f0{font-family: Courier New; font-weight: bold;}
                        .ta0{text-anchor: middle;}
                        .ta1{text-anchor: end;}
                        .db0{dominant-baseline: text-before-edge;}
                        .db1{dominant-baseline: central;}
                        .c0{fill: rgb(0, 0, 0);}
                        .c1{fill: rgb(255, 255, 255);}
                        .s0{font-size: 3.5px;}
                        .s1{font-size: 5px;}
                        .s2{font-size: 8px;}
                        .s3{font-size: 3px;}
                        .a0{font-size: 60px;}
                        .a1{font-size: 30px;}
                        .a2{font-size: 16px;}
                        .a3{font-size: 8px;}
                    </style></svg></g></svg>